<mxfile host="Electron" modified="2024-03-28T17:14:38.190Z" agent="Mozilla/5.0 (Macintosh; Intel Mac OS X 10_15_7) AppleWebKit/537.36 (KHTML, like Gecko) draw.io/21.2.8 Chrome/112.0.5615.165 Electron/24.2.0 Safari/537.36" etag="ZEgzLoBIxXXqGgOWj-jh" version="21.2.8" type="device">
  <diagram id="WpStj44GbGdjuQ3xVFPT" name="schematic">
    <mxGraphModel dx="1147" dy="783" grid="1" gridSize="10" guides="1" tooltips="1" connect="1" arrows="1" fold="1" page="1" pageScale="1" pageWidth="827" pageHeight="1169" math="0" shadow="0">
      <root>
        <mxCell id="0" />
        <mxCell id="1" parent="0" />
        <mxCell id="3jlD7ikaxx_bkqUBhBRm-18" style="edgeStyle=Arial Nova Light;rounded=1;orthogonalLoop=1;jettySize=auto;html=1;exitX=0.5;exitY=1;exitDx=0;exitDy=0;strokeColor=#464749;fontFamily=Arial Nova Light;fontColor=#464749;fillColor=#FFFFFF;endArrow=none;endFill=0;" parent="1" source="3jlD7ikaxx_bkqUBhBRm-1" edge="1">
          <mxGeometry relative="1" as="geometry">
            <mxPoint x="190" y="360" as="targetPoint" />
          </mxGeometry>
        </mxCell>
        <mxCell id="3jlD7ikaxx_bkqUBhBRm-1" value="" style="rounded=0;whiteSpace=wrap;html=1;strokeColor=#464749;fontFamily=Arial Nova Light;fontColor=#464749;fillColor=#FFFFFF;" parent="1" vertex="1">
          <mxGeometry x="180" y="240" width="20" height="80" as="geometry" />
        </mxCell>
        <mxCell id="3jlD7ikaxx_bkqUBhBRm-14" style="edgeStyle=Arial Nova Light;rounded=1;orthogonalLoop=1;jettySize=auto;html=1;exitX=1;exitY=0.5;exitDx=0;exitDy=0;entryX=0;entryY=0.5;entryDx=0;entryDy=0;strokeColor=#464749;fontFamily=Arial Nova Light;fontColor=#464749;fillColor=#FFFFFF;endArrow=none;endFill=0;" parent="1" target="3jlD7ikaxx_bkqUBhBRm-9" edge="1">
          <mxGeometry relative="1" as="geometry">
            <mxPoint x="290" y="280" as="sourcePoint" />
          </mxGeometry>
        </mxCell>
        <mxCell id="3jlD7ikaxx_bkqUBhBRm-15" style="edgeStyle=Arial Nova Light;rounded=1;orthogonalLoop=1;jettySize=auto;html=1;entryX=1;entryY=0.5;entryDx=0;entryDy=0;strokeColor=#464749;fontFamily=Arial Nova Light;fontColor=#464749;fillColor=#FFFFFF;" parent="1" target="3jlD7ikaxx_bkqUBhBRm-1" edge="1">
          <mxGeometry relative="1" as="geometry">
            <mxPoint x="300" y="280" as="sourcePoint" />
          </mxGeometry>
        </mxCell>
        <mxCell id="3jlD7ikaxx_bkqUBhBRm-3" value="" style="endArrow=none;html=1;rounded=1;strokeColor=#464749;fontFamily=Arial Nova Light;fontColor=#464749;fillColor=#FFFFFF;" parent="1" edge="1">
          <mxGeometry width="50" height="50" relative="1" as="geometry">
            <mxPoint x="320" y="300" as="sourcePoint" />
            <mxPoint x="360" y="300" as="targetPoint" />
          </mxGeometry>
        </mxCell>
        <mxCell id="3jlD7ikaxx_bkqUBhBRm-4" value="" style="endArrow=none;html=1;rounded=1;strokeColor=#464749;fontFamily=Arial Nova Light;fontColor=#464749;fillColor=#FFFFFF;" parent="1" edge="1">
          <mxGeometry width="50" height="50" relative="1" as="geometry">
            <mxPoint x="320" y="310" as="sourcePoint" />
            <mxPoint x="360" y="310" as="targetPoint" />
          </mxGeometry>
        </mxCell>
        <mxCell id="3jlD7ikaxx_bkqUBhBRm-5" value="" style="endArrow=none;html=1;rounded=1;strokeColor=#464749;fontFamily=Arial Nova Light;fontColor=#464749;fillColor=#FFFFFF;" parent="1" edge="1">
          <mxGeometry width="50" height="50" relative="1" as="geometry">
            <mxPoint x="360" y="360" as="sourcePoint" />
            <mxPoint x="320" y="360" as="targetPoint" />
          </mxGeometry>
        </mxCell>
        <mxCell id="3jlD7ikaxx_bkqUBhBRm-6" value="" style="endArrow=none;html=1;rounded=1;strokeColor=#464749;fontFamily=Arial Nova Light;fontColor=#464749;fillColor=#FFFFFF;" parent="1" edge="1">
          <mxGeometry width="50" height="50" relative="1" as="geometry">
            <mxPoint x="350" y="370" as="sourcePoint" />
            <mxPoint x="330" y="370" as="targetPoint" />
          </mxGeometry>
        </mxCell>
        <mxCell id="3jlD7ikaxx_bkqUBhBRm-7" value="" style="endArrow=none;html=1;rounded=1;strokeColor=#464749;fontFamily=Arial Nova Light;fontColor=#464749;fillColor=#FFFFFF;" parent="1" edge="1">
          <mxGeometry width="50" height="50" relative="1" as="geometry">
            <mxPoint x="340" y="360" as="sourcePoint" />
            <mxPoint x="340" y="310" as="targetPoint" />
          </mxGeometry>
        </mxCell>
        <mxCell id="3jlD7ikaxx_bkqUBhBRm-11" style="edgeStyle=Arial Nova Light;rounded=1;orthogonalLoop=1;jettySize=auto;html=1;entryX=0;entryY=0.5;entryDx=0;entryDy=0;strokeColor=#464749;fontFamily=Arial Nova Light;fontColor=#464749;fillColor=#FFFFFF;endArrow=none;endFill=0;" parent="1" target="3jlD7ikaxx_bkqUBhBRm-10" edge="1">
          <mxGeometry relative="1" as="geometry">
            <mxPoint x="440" y="280" as="sourcePoint" />
          </mxGeometry>
        </mxCell>
        <mxCell id="3jlD7ikaxx_bkqUBhBRm-12" value="" style="edgeStyle=Arial Nova Light;rounded=1;orthogonalLoop=1;jettySize=auto;html=1;strokeColor=#464749;fontFamily=Arial Nova Light;fontColor=#464749;fillColor=#FFFFFF;endArrow=none;endFill=0;" parent="1" source="3jlD7ikaxx_bkqUBhBRm-9" target="3jlD7ikaxx_bkqUBhBRm-10" edge="1">
          <mxGeometry relative="1" as="geometry" />
        </mxCell>
        <mxCell id="3jlD7ikaxx_bkqUBhBRm-9" value="Rs" style="rounded=0;whiteSpace=wrap;html=1;strokeColor=#464749;fontFamily=Arial Nova Light;fontColor=#464749;fillColor=#FFFFFF;" parent="1" vertex="1">
          <mxGeometry x="394" y="270" width="40" height="20" as="geometry" />
        </mxCell>
        <mxCell id="3jlD7ikaxx_bkqUBhBRm-10" value="1 bit port" style="whiteSpace=wrap;html=1;aspect=fixed;strokeColor=#464749;fontFamily=Arial Nova Light;fontColor=#464749;fillColor=#FFFFFF;align=left;" parent="1" vertex="1">
          <mxGeometry x="490" y="205" width="150" height="150" as="geometry" />
        </mxCell>
        <mxCell id="3jlD7ikaxx_bkqUBhBRm-16" value="" style="endArrow=none;html=1;rounded=1;strokeColor=#464749;fontFamily=Arial Nova Light;fontColor=#464749;fillColor=#FFFFFF;" parent="1" edge="1">
          <mxGeometry width="50" height="50" relative="1" as="geometry">
            <mxPoint x="210" y="360" as="sourcePoint" />
            <mxPoint x="170" y="360" as="targetPoint" />
          </mxGeometry>
        </mxCell>
        <mxCell id="3jlD7ikaxx_bkqUBhBRm-17" value="" style="endArrow=none;html=1;rounded=1;strokeColor=#464749;fontFamily=Arial Nova Light;fontColor=#464749;fillColor=#FFFFFF;" parent="1" edge="1">
          <mxGeometry width="50" height="50" relative="1" as="geometry">
            <mxPoint x="200" y="370" as="sourcePoint" />
            <mxPoint x="180" y="370" as="targetPoint" />
          </mxGeometry>
        </mxCell>
        <mxCell id="3jlD7ikaxx_bkqUBhBRm-22" value="" style="endArrow=none;html=1;rounded=1;strokeColor=#464749;fontFamily=Arial Nova Light;fontColor=#464749;fillColor=#FFFFFF;" parent="1" edge="1">
          <mxGeometry width="50" height="50" relative="1" as="geometry">
            <mxPoint x="340" y="300" as="sourcePoint" />
            <mxPoint x="340" y="280" as="targetPoint" />
          </mxGeometry>
        </mxCell>
        <mxCell id="NY_t0b_IkuVbSj6OYg1q-1" value="C" style="text;html=1;align=center;verticalAlign=middle;resizable=0;points=[];autosize=1;strokeColor=none;fillColor=none;fontFamily=Arial Nova Light;fontColor=#464749;" parent="1" vertex="1">
          <mxGeometry x="350" y="308" width="30" height="30" as="geometry" />
        </mxCell>
      </root>
    </mxGraphModel>
  </diagram>
</mxfile>
